<svg xmlns="http://www.w3.org/2000/svg" version="1.1" xmlns:xlink="http://www.w3.org/1999/xlink" xmlns:svgjs="http://svgjs.dev/svgjs" width="1000" height="1000" viewBox="0 0 1000 1000"><rect width="1000" height="1000" fill="#ffffff"></rect><g transform="matrix(0.7,0,0,0.7,149.5757585335321,449.6168920269945)"><svg viewBox="0 0 396 57" data-background-color="#ffffff" preserveAspectRatio="xMidYMid meet" height="143" width="1000" xmlns="http://www.w3.org/2000/svg" xmlns:xlink="http://www.w3.org/1999/xlink"><g id="tight-bounds" transform="matrix(1,0,0,1,0.23999945817325852,0.18968248775314578)"><svg viewBox="0 0 395.52 56.62063564949644" height="56.62063564949644" width="395.52"><g><svg viewBox="0 0 495.28376061578916 70.90230924590163" height="56.62063564949644" width="395.52"><g><rect width="4.62665949274859" height="61.56495737704917" x="407.63167406478686" y="4.668675934426233" fill="#000000" opacity="1" stroke-width="0" stroke="transparent" fill-opacity="1" class="rect-o-0" data-fill-palette-color="primary" rx="1%" id="o-0" data-palette-color="#0080ff"></rect></g><g transform="matrix(1,0,0,1,0,9.799089049180328)"><svg viewBox="0 0 395.52 51.30413114754098" height="51.30413114754098" width="395.52"><g><svg viewBox="0 0 395.52 51.30413114754098" height="51.30413114754098" width="395.52"><g><svg viewBox="0 0 395.52 51.30413114754098" height="51.30413114754098" width="395.52"><g transform="matrix(1,0,0,1,0,0)"><svg width="395.52" viewBox="4.199999809265137 -30.65999984741211 238.260009765625 30.899999618530273" height="51.30413114754098" data-palette-color="#0080ff"><path d="M5.96 0.07Q4.2 0.07 4.2-0.88L4.2-0.88 4.2-29.08Q4.2-29.76 4.52-30.07 4.83-30.37 5.52-30.37L5.52-30.37 12.82-30.37Q18.02-30.37 20.64-28.54 23.27-26.71 23.27-22.71L23.27-22.71Q23.27-20 21.96-18.15 20.65-16.31 18.29-15.38L18.29-15.38 18.29-15.21Q19.56-14.77 20.37-13.51 21.19-12.26 22.19-9.79L22.19-9.79 25.59-1.22Q25.71-0.78 25.71-0.61L25.71-0.61Q25.71 0.07 23.88 0.07L23.88 0.07 23.44 0.07Q22.78 0.07 22.3-0.11 21.83-0.29 21.7-0.61L21.7-0.61 18.41-9.13Q17.77-10.79 16.92-11.72 16.06-12.65 14.89-13.01 13.72-13.38 11.94-13.38L11.94-13.38 8.03-13.38 8.03-0.88Q8.03 0.07 6.3 0.07L6.3 0.07 5.96 0.07ZM8.03-16.67L13.75-16.67Q15.28-16.67 16.56-17.41 17.85-18.14 18.59-19.37 19.34-20.61 19.34-22L19.34-22Q19.34-24.56 17.77-25.82 16.21-27.08 13.45-27.08L13.45-27.08 8.03-27.08 8.03-16.67ZM32 0Q31.32 0 31-0.32 30.69-0.63 30.69-1.29L30.69-1.29 30.69-29.08Q30.69-29.76 31-30.07 31.32-30.37 32-30.37L32-30.37 47.14-30.37Q47.6-30.37 47.81-30.08 48.02-29.79 48.02-29.08L48.02-29.08 48.02-28.37Q48.02-27.71 47.81-27.39 47.6-27.08 47.14-27.08L47.14-27.08 34.52-27.08 34.52-17.19 45.85-17.19Q46.31-17.19 46.52-16.87 46.73-16.55 46.73-15.87L46.73-15.87 46.73-15.21Q46.73-14.53 46.52-14.22 46.31-13.92 45.85-13.92L45.85-13.92 34.52-13.92 34.52-3.3 47.19-3.3Q47.65-3.3 47.86-2.99 48.07-2.69 48.07-2L48.07-2 48.07-1.29Q48.07-0.63 47.86-0.32 47.65 0 47.19 0L47.19 0 32 0ZM60.79 0.24Q58.39 0.24 56.33-0.28 54.27-0.81 53.03-1.55 51.8-2.29 51.8-2.91L51.8-2.91Q51.8-3.25 52.08-3.81 52.36-4.37 52.73-4.81 53.1-5.25 53.32-5.25L53.32-5.25Q53.51-5.25 54.17-4.86L54.17-4.86Q55.68-4.08 57.17-3.56 58.66-3.05 60.79-3.05L60.79-3.05Q62.45-3.05 63.74-3.69 65.03-4.32 65.75-5.48 66.47-6.64 66.47-8.15L66.47-8.15Q66.47-9.77 65.61-10.83 64.74-11.89 63.51-12.51 62.28-13.13 59.93-14.06L59.93-14.06Q57.39-15.04 55.92-15.88 54.44-16.72 53.4-18.33 52.36-19.95 52.36-22.61L52.36-22.61Q52.36-24.93 53.56-26.77 54.76-28.61 56.95-29.64 59.15-30.66 62.01-30.66L62.01-30.66Q63.3-30.66 64.96-30.31 66.62-29.96 67.81-29.35 68.99-28.74 68.99-28L68.99-28Q68.99-27.69 68.73-27.14 68.48-26.59 68.13-26.15 67.79-25.71 67.6-25.71L67.6-25.71Q67.38-25.71 66.72-26.07L66.72-26.07Q65.62-26.66 64.55-27.01 63.47-27.37 61.93-27.37L61.93-27.37Q59.42-27.37 57.87-26.07 56.32-24.78 56.32-22.46L56.32-22.46Q56.32-21.07 57-20.17 57.69-19.26 58.74-18.73 59.79-18.19 61.66-17.48L61.66-17.48Q61.79-17.46 62.23-17.29L62.23-17.29Q64.81-16.28 66.46-15.34 68.11-14.4 69.27-12.65 70.43-10.89 70.43-8.15L70.43-8.15Q70.43-5.59 69.25-3.69 68.06-1.78 65.88-0.77 63.69 0.24 60.79 0.24L60.79 0.24ZM77.41 0Q76.73 0 76.41-0.32 76.09-0.63 76.09-1.29L76.09-1.29 76.09-29.08Q76.09-29.76 76.41-30.07 76.73-30.37 77.41-30.37L77.41-30.37 92.55-30.37Q93.01-30.37 93.22-30.08 93.43-29.79 93.43-29.08L93.43-29.08 93.43-28.37Q93.43-27.71 93.22-27.39 93.01-27.08 92.55-27.08L92.55-27.08 79.92-27.08 79.92-17.19 91.25-17.19Q91.72-17.19 91.92-16.87 92.13-16.55 92.13-15.87L92.13-15.87 92.13-15.21Q92.13-14.53 91.92-14.22 91.72-13.92 91.25-13.92L91.25-13.92 79.92-13.92 79.92-3.3 92.6-3.3Q93.06-3.3 93.27-2.99 93.47-2.69 93.47-2L93.47-2 93.47-1.29Q93.47-0.63 93.27-0.32 93.06 0 92.6 0L92.6 0 77.41 0ZM101.55 0.07Q99.79 0.07 99.79-0.88L99.79-0.88 99.79-29.08Q99.79-29.76 100.11-30.07 100.43-30.37 101.11-30.37L101.11-30.37 108.41-30.37Q113.61-30.37 116.24-28.54 118.86-26.71 118.86-22.71L118.86-22.71Q118.86-20 117.56-18.15 116.25-16.31 113.88-15.38L113.88-15.38 113.88-15.21Q115.15-14.77 115.97-13.51 116.79-12.26 117.79-9.79L117.79-9.79 121.18-1.22Q121.3-0.78 121.3-0.61L121.3-0.61Q121.3 0.07 119.47 0.07L119.47 0.07 119.03 0.07Q118.37 0.07 117.9-0.11 117.42-0.29 117.3-0.61L117.3-0.61 114-9.13Q113.37-10.79 112.51-11.72 111.66-12.65 110.49-13.01 109.32-13.38 107.53-13.38L107.53-13.38 103.63-13.38 103.63-0.88Q103.63 0.07 101.89 0.07L101.89 0.07 101.55 0.07ZM103.63-16.67L109.34-16.67Q110.88-16.67 112.16-17.41 113.44-18.14 114.19-19.37 114.93-20.61 114.93-22L114.93-22Q114.93-24.56 113.37-25.82 111.81-27.08 109.05-27.08L109.05-27.08 103.63-27.08 103.63-16.67ZM134.8 0.07Q133.29 0.07 133.07-0.61L133.07-0.61 123.13-29.17Q122.99-29.47 122.99-29.74L122.99-29.74Q122.99-30.08 123.46-30.29 123.94-30.49 124.87-30.49L124.87-30.49 125.26-30.49Q126.75-30.49 126.99-29.79L126.99-29.79 135.02-6.62 135.46-4.35 135.58-4.35 136.07-6.67 144.08-29.79Q144.35-30.49 145.84-30.49L145.84-30.49 146.08-30.49Q147.96-30.49 147.96-29.74L147.96-29.74Q147.96-29.49 147.81-29.13L147.81-29.13 137.88-0.61Q137.66 0.07 136.14 0.07L136.14 0.07 134.8 0.07ZM154.38 0Q153.7 0 153.38-0.32 153.06-0.63 153.06-1.29L153.06-1.29 153.06-29.08Q153.06-29.76 153.38-30.07 153.7-30.37 154.38-30.37L154.38-30.37 169.52-30.37Q169.98-30.37 170.19-30.08 170.4-29.79 170.4-29.08L170.4-29.08 170.4-28.37Q170.4-27.71 170.19-27.39 169.98-27.08 169.52-27.08L169.52-27.08 156.89-27.08 156.89-17.19 168.22-17.19Q168.69-17.19 168.89-16.87 169.1-16.55 169.1-15.87L169.1-15.87 169.1-15.21Q169.1-14.53 168.89-14.22 168.69-13.92 168.22-13.92L168.22-13.92 156.89-13.92 156.89-3.3 169.57-3.3Q170.03-3.3 170.24-2.99 170.44-2.69 170.44-2L170.44-2 170.44-1.29Q170.44-0.63 170.24-0.32 170.03 0 169.57 0L169.57 0 154.38 0ZM174.96 0.07Q173.98 0.07 173.54-0.11 173.1-0.29 173.1-0.66L173.1-0.66Q173.1-0.83 173.22-1.25L173.22-1.25 183.5-29.79Q183.75-30.49 185.24-30.49L185.24-30.49 186.51-30.49Q188-30.49 188.24-29.79L188.24-29.79 198.52-1.22Q198.64-0.95 198.64-0.66L198.64-0.66Q198.64 0.07 196.81 0.07L196.81 0.07 196.44 0.07Q194.93 0.07 194.68-0.61L194.68-0.61 192.15-7.74 179.4-7.74 176.91-0.61Q176.69 0.07 175.18 0.07L175.18 0.07 174.96 0.07ZM180.6-11.04L190.97-11.04 186.43-23.95Q186.24-24.49 186.12-25.17 185.99-25.85 185.9-26.49L185.9-26.49 185.8-26.49Q185.5-24.85 185.14-23.95L185.14-23.95 180.6-11.04ZM209.77 0.24Q207.38 0.24 205.31-0.28 203.25-0.81 202.02-1.55 200.79-2.29 200.79-2.91L200.79-2.91Q200.79-3.25 201.07-3.81 201.35-4.37 201.71-4.81 202.08-5.25 202.3-5.25L202.3-5.25Q202.49-5.25 203.15-4.86L203.15-4.86Q204.67-4.08 206.16-3.56 207.65-3.05 209.77-3.05L209.77-3.05Q211.43-3.05 212.72-3.69 214.02-4.32 214.74-5.48 215.46-6.64 215.46-8.15L215.46-8.15Q215.46-9.77 214.59-10.83 213.73-11.89 212.49-12.51 211.26-13.13 208.92-14.06L208.92-14.06Q206.38-15.04 204.9-15.88 203.42-16.72 202.38-18.33 201.35-19.95 201.35-22.61L201.35-22.61Q201.35-24.93 202.54-26.77 203.74-28.61 205.94-29.64 208.13-30.66 210.99-30.66L210.99-30.66Q212.28-30.66 213.94-30.31 215.61-29.96 216.79-29.35 217.97-28.74 217.97-28L217.97-28Q217.97-27.69 217.72-27.14 217.46-26.59 217.12-26.15 216.78-25.71 216.58-25.71L216.58-25.71Q216.36-25.71 215.7-26.07L215.7-26.07Q214.6-26.66 213.53-27.01 212.46-27.37 210.92-27.37L210.92-27.37Q208.4-27.37 206.85-26.07 205.3-24.78 205.3-22.46L205.3-22.46Q205.3-21.07 205.99-20.17 206.67-19.26 207.72-18.73 208.77-18.19 210.65-17.48L210.65-17.48Q210.77-17.46 211.21-17.29L211.21-17.29Q213.8-16.28 215.45-15.34 217.09-14.4 218.25-12.65 219.41-10.89 219.41-8.15L219.41-8.15Q219.41-5.59 218.23-3.69 217.05-1.78 214.86-0.77 212.68 0.24 209.77 0.24L209.77 0.24ZM226.39 0Q225.71 0 225.39-0.32 225.08-0.63 225.08-1.29L225.08-1.29 225.08-29.08Q225.08-29.76 225.39-30.07 225.71-30.37 226.39-30.37L226.39-30.37 241.53-30.37Q241.99-30.37 242.2-30.08 242.41-29.79 242.41-29.08L242.41-29.08 242.41-28.37Q242.41-27.71 242.2-27.39 241.99-27.08 241.53-27.08L241.53-27.08 228.91-27.08 228.91-17.19 240.24-17.19Q240.7-17.19 240.91-16.87 241.12-16.55 241.12-15.87L241.12-15.87 241.12-15.21Q241.12-14.53 240.91-14.22 240.7-13.92 240.24-13.92L240.24-13.92 228.91-13.92 228.91-3.3 241.58-3.3Q242.04-3.3 242.25-2.99 242.46-2.69 242.46-2L242.46-2 242.46-1.29Q242.46-0.63 242.25-0.32 242.04 0 241.58 0L241.58 0 226.39 0Z" opacity="1" transform="matrix(1,0,0,1,0,0)" fill="#000000" class="undefined-text-0" data-fill-palette-color="primary" id="text-0"></path></svg></g></svg></g></svg></g></svg></g><g transform="matrix(1,0,0,1,424.37000762232236,0)"><svg viewBox="0 0 70.9137529934668 70.90230924590163" height="70.90230924590163" width="70.9137529934668"><g><svg xmlns="http://www.w3.org/2000/svg" xmlns:xlink="http://www.w3.org/1999/xlink" version="1.1" x="0" y="0" viewBox="23.413021087646484 22.926000595092773 53.91971206665039 53.9110107421875" style="enable-background:new 0 0 100 100;" xml:space="preserve" height="70.90230924590163" width="70.9137529934668" class="icon-icon-0" data-fill-palette-color="accent" id="icon-0"><path d="M71.499 25.582c0.97 0 1.722 0.32 2.286 0.883 2.182 2.182 0.705 7.199-8.825 16.728-0.359 0.359-0.73 0.724-1.107 1.092l3.972 26.009-3.886 3.886L50.88 55.596c-2.168 1.7-4.266 3.244-6.154 4.513l0.661 10.362-1.602 1.602-4.63-8.829c-0.605 0.227-1.116 0.348-1.515 0.348-0.322 0-0.571-0.079-0.738-0.246-0.373-0.373-0.308-1.159 0.103-2.253l-8.829-4.63 1.602-1.602 10.362 0.661c1.269-1.888 2.813-3.986 4.513-6.154L26.069 36.311l3.886-3.886 26.009 3.972c0.368-0.378 0.732-0.748 1.092-1.107C64.126 28.22 68.711 25.582 71.499 25.582M71.499 22.926C71.499 22.926 71.499 22.926 71.499 22.926c-3.981 0-9.166 3.332-16.321 10.486-0.052 0.052-0.103 0.103-0.155 0.155L30.356 29.8c-0.134-0.02-0.268-0.03-0.401-0.03-0.699 0-1.376 0.276-1.878 0.778l-3.886 3.886c-0.554 0.554-0.836 1.326-0.768 2.107 0.068 0.781 0.477 1.493 1.119 1.943L40.86 49.949c-0.738 0.983-1.425 1.927-2.055 2.828l-8.857-0.565c-0.057-0.004-0.113-0.005-0.169-0.005-0.702 0-1.378 0.278-1.877 0.778l-1.602 1.602c-0.597 0.597-0.875 1.443-0.747 2.278 0.127 0.835 0.644 1.559 1.392 1.952l7.065 3.705c-0.027 1.094 0.313 1.999 1.018 2.704 0.467 0.467 1.299 1.023 2.615 1.023 0.03 0 0.061 0 0.091-0.001l3.702 7.06c0.392 0.748 1.117 1.265 1.952 1.392 0.133 0.02 0.267 0.03 0.4 0.03 0.699 0 1.376-0.276 1.878-0.778l1.602-1.602c0.54-0.54 0.821-1.285 0.772-2.047l-0.565-8.857c0.901-0.631 1.845-1.317 2.828-2.055l11.466 16.317c0.451 0.642 1.162 1.051 1.943 1.119 0.077 0.007 0.153 0.01 0.229 0.01 0.701 0 1.377-0.278 1.877-0.778l3.886-3.886c0.597-0.597 0.875-1.443 0.747-2.279l-3.767-24.668c0.052-0.052 0.104-0.103 0.155-0.155 3.625-3.625 14.654-14.654 8.825-20.484C74.576 23.501 73.136 22.926 71.499 22.926L71.499 22.926z" fill="#000000" data-fill-palette-color="accent"></path></svg></g></svg></g></svg></g><defs></defs></svg><rect width="395.52" height="56.62063564949644" fill="none" stroke="none" visibility="hidden"></rect></g></svg></g></svg>